<svg version="1.0" xmlns="http://www.w3.org/2000/svg"
 width="2048pt" height="2048pt" viewBox="0 0 512.000000 512.000000"
 preserveAspectRatio="xMidYMid meet">
<rect width="100%" height="100%" fill="#ffffff" />
<g transform="translate(0.000000,512.000000) scale(0.10000,-0.100000)"
 stroke="none">
<path d="M0 2560 l0 -2560 2560 0 2560 0 0 2560 0 2560 -2560 0 -2560 0 0
-2560z m2822 1261 c368 -97 671 -364 817 -719 58 -139 83 -262 88 -432 7 -212
-23 -367 -108 -558 -32 -70 -107 -199 -121 -208 -14 -9 -58 5 -58 17 0 6 21
45 46 86 274 438 230 995 -108 1393 -97 114 -210 200 -353 270 -188 93 -354
124 -570 109 -351 -26 -689 -253 -870 -584 -97 -178 -140 -371 -132 -590 9
-221 53 -382 157 -566 33 -59 60 -112 60 -118 0 -6 -9 -15 -20 -21 -29 -16
-57 18 -123 153 -104 210 -142 371 -141 597 0 249 62 462 193 663 168 256 466
460 767 522 102 21 374 13 476 -14z m-621 -675 c42 -18 87 -65 124 -129 55
-96 125 -124 289 -114 201 13 461 106 540 196 39 44 80 16 58 -41 -5 -15 -6
-26 -1 -22 18 11 8 -44 -13 -72 -14 -18 -16 -24 -5 -15 15 12 17 11 17 -4 0
-32 -74 -125 -154 -194 -48 -41 -51 -47 -53 -94 -5 -101 -83 -215 -195 -284
l-59 -36 3 -121 3 -121 -50 -23 c-27 -13 -69 -35 -92 -50 -39 -24 -43 -31 -43
-66 l0 -38 68 7 c144 14 325 100 435 204 74 70 142 179 174 279 22 66 27 103
32 250 l6 174 28 24 c33 28 54 30 85 8 36 -25 27 -76 -18 -99 -27 -14 -27 -16
-34 -142 -8 -150 -26 -233 -72 -325 -48 -100 -84 -146 -175 -232 -65 -61 -103
-87 -183 -126 -140 -67 -212 -83 -371 -83 -158 0 -235 16 -360 78 -137 66
-270 196 -338 331 -50 98 -67 172 -79 337 -9 121 -14 157 -25 157 -19 0 -63
45 -63 65 0 25 38 55 70 55 20 0 39 -9 54 -25 21 -23 23 -36 29 -192 4 -95 13
-196 22 -232 21 -86 84 -205 146 -274 46 -52 165 -147 184 -147 4 0 16 12 28
26 26 34 134 104 159 104 16 0 18 9 18 99 l0 99 -65 31 c-86 40 -173 123 -215
205 -25 49 -35 89 -46 167 -12 94 -16 107 -58 170 -25 38 -46 74 -46 80 0 7
-15 10 -40 7 -22 -2 -40 -1 -40 3 0 7 62 39 77 39 4 0 17 17 28 37 38 71 137
102 216 69z m-660 -1566 c32 -18 22 -31 -20 -24 -31 5 -43 2 -60 -15 -12 -12
-21 -29 -21 -39 0 -29 41 -60 85 -64 l40 -4 -29 -12 c-21 -9 -37 -10 -59 -2
-40 13 -56 37 -57 82 0 61 69 106 121 78z m1270 -57 l54 -67 3 67 c2 51 6 67
17 67 12 0 15 -18 15 -90 0 -113 -9 -115 -84 -19 l-56 71 0 -71 c0 -56 -3 -71
-15 -71 -12 0 -15 17 -15 90 0 68 3 90 13 90 8 0 38 -30 68 -67z m423 61 c27
-11 18 -21 -24 -27 -23 -3 -47 -11 -55 -17 -21 -18 -18 -57 5 -80 21 -21 70
-28 70 -9 0 5 -5 7 -11 3 -13 -8 -29 13 -29 39 0 12 8 17 28 17 28 0 29 -2 28
-47 -1 -44 -3 -48 -27 -51 -98 -11 -148 108 -66 158 33 21 54 24 81 14z
m-1281 -25 c13 -21 0 -69 -19 -69 -11 0 -8 -9 12 -35 39 -52 19 -58 -25 -7
-20 23 -40 42 -45 42 -5 0 -6 -18 -3 -40 4 -33 2 -40 -12 -40 -15 0 -18 12
-19 85 l-1 86 51 -3 c33 -2 54 -9 61 -19z m357 11 c0 -5 -21 -10 -46 -10 -41
0 -45 -2 -42 -22 2 -19 9 -23 41 -23 29 0 37 -4 37 -17 0 -14 -9 -18 -40 -18
-33 0 -40 -3 -40 -20 0 -17 7 -20 45 -20 33 0 45 -4 45 -15 0 -12 -13 -15 -55
-15 l-55 0 0 85 0 85 55 0 c30 0 55 -4 55 -10z m1370 0 c0 -5 -20 -10 -45 -10
-41 0 -45 -2 -45 -25 0 -23 4 -25 41 -25 52 0 48 -24 -4 -28 -29 -3 -37 -7
-37 -23 0 -16 7 -19 45 -19 33 0 45 -4 45 -15 0 -12 -13 -15 -55 -15 l-55 0
-1 38 c0 20 -1 58 -3 85 l-3 47 58 0 c33 0 59 -4 59 -10z"/>
<path d="M2022 3008 c7 -19 38 -22 38 -4 0 10 -9 16 -21 16 -12 0 -19 -5 -17
-12z"/>
<path d="M2429 2238 c-2 -106 -2 -99 3 -117 2 -8 -13 -17 -43 -25 -62 -16
-180 -88 -167 -102 4 -3 32 -16 65 -29 l58 -24 21 48 c16 36 35 56 77 84 30
20 67 41 81 47 23 8 26 15 27 62 1 29 2 69 3 88 1 35 1 35 -50 41 -29 4 -57
10 -63 13 -8 5 -11 -21 -12 -86z"/>
<path d="M2675 2315 c-5 -2 -27 -6 -47 -10 l-38 -6 0 -89 c0 -53 4 -90 10 -90
29 0 2 -20 -62 -45 -77 -30 -181 -116 -162 -135 5 -5 44 -12 87 -16 l77 -6 0
46 c0 43 3 48 53 87 28 23 67 49 85 57 l32 16 0 98 c0 97 -2 104 -35 93z"/>
<path d="M3210 1480 c0 -5 5 -10 10 -10 6 0 10 5 10 10 0 6 -4 10 -10 10 -5 0
-10 -4 -10 -10z"/>
<path d="M1870 1536 c0 -21 5 -26 25 -26 14 0 28 7 32 15 7 19 5 22 -30 30
-24 6 -27 5 -27 -19z"/>
</g>
</svg>
